<svg width="342" height="205" viewBox="0 0 342 205" fill="none" xmlns="http://www.w3.org/2000/svg">
<rect width="342" height="205" rx="15" fill="url(#paint0_linear_2_58)"/>
<path d="M52.7188 35.152L54.6628 47.872L61.0708 35.152H65.4388L56.4868 52H51.3508L48.3508 35.152H52.7188ZM71.2581 35.152L68.2821 52H64.1781L67.1541 35.152H71.2581ZM77.9522 52.168C76.1282 52.168 74.6402 51.776 73.4882 50.992C72.3522 50.192 71.7842 49.064 71.7842 47.608C71.7842 47.464 71.8002 47.248 71.8322 46.96H76.1042C76.0562 47.568 76.2002 48.048 76.5362 48.4C76.8722 48.752 77.3842 48.928 78.0722 48.928C78.6962 48.928 79.1842 48.792 79.5362 48.52C79.9042 48.248 80.0882 47.864 80.0882 47.368C80.0882 46.856 79.8562 46.44 79.3922 46.12C78.9442 45.8 78.2402 45.44 77.2802 45.04C76.3522 44.656 75.5922 44.296 75.0002 43.96C74.4242 43.608 73.9202 43.136 73.4882 42.544C73.0562 41.952 72.8402 41.208 72.8402 40.312C72.8242 39.208 73.0962 38.248 73.6562 37.432C74.2162 36.616 74.9922 35.992 75.9842 35.56C76.9762 35.128 78.1122 34.912 79.3922 34.912C80.5442 34.912 81.5682 35.096 82.4642 35.464C83.3602 35.816 84.0562 36.336 84.5522 37.024C85.0482 37.696 85.2962 38.496 85.2962 39.424C85.2962 39.664 85.2882 39.84 85.2722 39.952H80.9042C80.9202 39.888 80.9282 39.792 80.9282 39.664C80.9282 39.216 80.7682 38.856 80.4482 38.584C80.1442 38.296 79.7202 38.152 79.1762 38.152C78.6002 38.152 78.1282 38.296 77.7602 38.584C77.4082 38.856 77.2322 39.232 77.2322 39.712C77.2322 40.192 77.4562 40.6 77.9042 40.936C78.3522 41.256 79.0482 41.632 79.9922 42.064C80.9362 42.496 81.7042 42.896 82.2962 43.264C82.9042 43.632 83.4242 44.128 83.8562 44.752C84.2882 45.36 84.5042 46.112 84.5042 47.008C84.5042 48 84.2402 48.888 83.7122 49.672C83.1842 50.456 82.4242 51.072 81.4322 51.52C80.4402 51.952 79.2802 52.168 77.9522 52.168ZM97.2019 49.024H90.9139L89.3779 52H85.0819L94.1539 35.152H98.9059L102.026 52H97.6819L97.2019 49.024ZM96.7219 45.904L95.7379 39.664L92.5219 45.904H96.7219Z" fill="#20656F"/>
<path d="M56.8909 156.928C56.9549 156.064 56.6429 155.504 55.9549 155.248L55.3069 158.968C56.4589 159.304 57.3389 159.6 57.9469 159.856C58.5709 160.096 59.1229 160.488 59.6029 161.032C60.0989 161.56 60.3469 162.272 60.3469 163.168C60.3469 163.344 60.3149 163.656 60.2509 164.104C60.1069 164.984 59.7389 165.8 59.1469 166.552C58.5549 167.288 57.7709 167.896 56.7949 168.376C55.8349 168.84 54.7389 169.096 53.5069 169.144L53.1709 171.088H51.6589L51.9949 169.12C50.4749 168.976 49.2749 168.544 48.3949 167.824C47.5149 167.088 47.0749 166.088 47.0749 164.824C47.0749 164.472 47.0909 164.208 47.1229 164.032H51.4909C51.3949 165.024 51.7549 165.64 52.5709 165.88L53.2429 162.088C52.1549 161.8 51.2909 161.528 50.6509 161.272C50.0269 161.016 49.4669 160.616 48.9709 160.072C48.4909 159.528 48.2509 158.808 48.2509 157.912C48.2509 157.576 48.2829 157.248 48.3469 156.928C48.6029 155.472 49.3549 154.304 50.6029 153.424C51.8509 152.528 53.3309 152.032 55.0429 151.936L55.3789 149.992H56.8909L56.5549 151.936C58.0749 152.064 59.2509 152.496 60.0829 153.232C60.9149 153.952 61.3309 154.952 61.3309 156.232C61.3309 156.376 61.3149 156.608 61.2829 156.928H56.8909ZM52.7149 156.736C52.6989 156.8 52.6909 156.896 52.6909 157.024C52.6909 157.632 53.0909 158.112 53.8909 158.464L54.4669 155.128C54.0029 155.208 53.6109 155.384 53.2909 155.656C52.9869 155.928 52.7949 156.288 52.7149 156.736ZM55.9309 164.248C55.9469 164.184 55.9549 164.096 55.9549 163.984C55.9549 163.36 55.5309 162.888 54.6829 162.568L54.0829 165.952C54.5789 165.872 54.9869 165.68 55.3069 165.376C55.6429 165.072 55.8509 164.696 55.9309 164.248ZM63.3998 165.04C65.1438 163.792 66.5358 162.76 67.5758 161.944C68.6158 161.128 69.5118 160.296 70.2638 159.448C71.0318 158.584 71.4798 157.76 71.6078 156.976C71.6558 156.752 71.6798 156.544 71.6798 156.352C71.6798 155.888 71.5518 155.536 71.2958 155.296C71.0558 155.056 70.6878 154.936 70.1918 154.936C68.9598 154.936 68.1758 155.808 67.8398 157.552H63.8558C64.2718 155.536 65.1358 154.024 66.4478 153.016C67.7758 151.992 69.2958 151.48 71.0078 151.48C72.6718 151.48 73.9038 151.856 74.7038 152.608C75.5198 153.36 75.9278 154.352 75.9278 155.584C75.9278 155.968 75.8958 156.32 75.8318 156.64C75.5438 158.272 74.6958 159.792 73.2878 161.2C71.8958 162.608 70.1678 164.016 68.1038 165.424H74.5838L73.9838 168.76H61.9358L62.4638 165.712L63.3998 165.04ZM89.4707 154.72L80.6867 169H76.3907L85.2467 155.176H77.8067L78.4307 151.696H89.9987L89.4707 154.72ZM94.3465 165.112L90.4585 172.072H87.7705L90.1705 165.112H94.3465ZM97.1074 160.264C97.5714 157.608 98.4674 155.504 99.7954 153.952C101.139 152.384 102.995 151.6 105.363 151.6C107.267 151.6 108.659 152.12 109.539 153.16C110.435 154.184 110.883 155.616 110.883 157.456C110.883 158.208 110.787 159.144 110.595 160.264C110.131 162.92 109.227 165.032 107.883 166.6C106.539 168.152 104.683 168.928 102.315 168.928C100.411 168.928 99.0194 168.416 98.1394 167.392C97.2754 166.352 96.8434 164.912 96.8434 163.072C96.8434 162.224 96.9314 161.288 97.1074 160.264ZM106.539 160.264C106.715 159.272 106.803 158.496 106.803 157.936C106.803 157.136 106.643 156.52 106.323 156.088C106.003 155.656 105.459 155.44 104.691 155.44C103.587 155.44 102.779 155.864 102.267 156.712C101.771 157.56 101.395 158.744 101.139 160.264C100.963 161.256 100.875 162.032 100.875 162.592C100.875 163.392 101.035 164.008 101.355 164.44C101.675 164.872 102.219 165.088 102.987 165.088C104.091 165.088 104.891 164.664 105.387 163.816C105.899 162.968 106.283 161.784 106.539 160.264ZM112.764 160.264C113.228 157.608 114.124 155.504 115.452 153.952C116.796 152.384 118.652 151.6 121.02 151.6C122.924 151.6 124.316 152.12 125.196 153.16C126.092 154.184 126.54 155.616 126.54 157.456C126.54 158.208 126.444 159.144 126.252 160.264C125.788 162.92 124.884 165.032 123.54 166.6C122.196 168.152 120.34 168.928 117.972 168.928C116.068 168.928 114.676 168.416 113.796 167.392C112.932 166.352 112.5 164.912 112.5 163.072C112.5 162.224 112.588 161.288 112.764 160.264ZM122.196 160.264C122.372 159.272 122.46 158.496 122.46 157.936C122.46 157.136 122.3 156.52 121.98 156.088C121.66 155.656 121.116 155.44 120.348 155.44C119.244 155.44 118.436 155.864 117.924 156.712C117.428 157.56 117.052 158.744 116.796 160.264C116.62 161.256 116.532 162.032 116.532 162.592C116.532 163.392 116.692 164.008 117.012 164.44C117.332 164.872 117.876 165.088 118.644 165.088C119.748 165.088 120.548 164.664 121.044 163.816C121.556 162.968 121.94 161.784 122.196 160.264ZM128.42 160.264C128.884 157.608 129.78 155.504 131.108 153.952C132.452 152.384 134.308 151.6 136.676 151.6C138.58 151.6 139.972 152.12 140.852 153.16C141.748 154.184 142.196 155.616 142.196 157.456C142.196 158.208 142.1 159.144 141.908 160.264C141.444 162.92 140.54 165.032 139.196 166.6C137.852 168.152 135.996 168.928 133.628 168.928C131.724 168.928 130.332 168.416 129.452 167.392C128.588 166.352 128.156 164.912 128.156 163.072C128.156 162.224 128.244 161.288 128.42 160.264ZM137.852 160.264C138.028 159.272 138.116 158.496 138.116 157.936C138.116 157.136 137.956 156.52 137.636 156.088C137.316 155.656 136.772 155.44 136.004 155.44C134.9 155.44 134.092 155.864 133.58 156.712C133.084 157.56 132.708 158.744 132.452 160.264C132.276 161.256 132.188 162.032 132.188 162.592C132.188 163.392 132.348 164.008 132.668 164.44C132.988 164.872 133.532 165.088 134.3 165.088C135.404 165.088 136.204 164.664 136.7 163.816C137.212 162.968 137.596 161.784 137.852 160.264ZM144.82 169.192C144.18 169.192 143.668 169.024 143.284 168.688C142.916 168.336 142.732 167.896 142.732 167.368C142.732 166.632 143.004 166.008 143.548 165.496C144.108 164.984 144.796 164.728 145.612 164.728C146.236 164.728 146.732 164.904 147.1 165.256C147.468 165.592 147.652 166.032 147.652 166.576C147.652 167.296 147.372 167.912 146.812 168.424C146.268 168.936 145.604 169.192 144.82 169.192ZM151.666 156.424C152.034 154.712 152.826 153.392 154.042 152.464C155.258 151.536 156.77 151.072 158.578 151.072C160.162 151.072 161.378 151.432 162.226 152.152C163.074 152.872 163.498 153.808 163.498 154.96C163.498 155.248 163.474 155.536 163.426 155.824C163.234 156.88 162.818 157.744 162.178 158.416C161.538 159.072 160.842 159.52 160.09 159.76V159.856C160.81 160.112 161.37 160.512 161.77 161.056C162.17 161.584 162.37 162.256 162.37 163.072C162.37 163.424 162.338 163.76 162.274 164.08C162.002 165.584 161.274 166.808 160.09 167.752C158.906 168.68 157.418 169.144 155.626 169.144C153.914 169.144 152.562 168.768 151.57 168.016C150.594 167.264 150.106 166.12 150.106 164.584C150.106 164.376 150.138 164 150.202 163.456H154.186C154.154 163.712 154.138 163.888 154.138 163.984C154.138 164.544 154.298 164.976 154.618 165.28C154.938 165.584 155.418 165.736 156.058 165.736C156.778 165.736 157.354 165.504 157.786 165.04C158.218 164.576 158.434 163.984 158.434 163.264C158.434 162.672 158.21 162.248 157.762 161.992C157.33 161.72 156.642 161.584 155.698 161.584H154.93L155.53 158.248H156.298C158.106 158.248 159.13 157.608 159.37 156.328C159.402 156.136 159.418 155.992 159.418 155.896C159.418 155.448 159.282 155.104 159.01 154.864C158.754 154.624 158.378 154.504 157.882 154.504C157.274 154.504 156.786 154.688 156.418 155.056C156.05 155.424 155.794 155.88 155.65 156.424H151.666ZM165.381 160.264C165.845 157.608 166.741 155.504 168.069 153.952C169.413 152.384 171.269 151.6 173.637 151.6C175.541 151.6 176.933 152.12 177.813 153.16C178.709 154.184 179.157 155.616 179.157 157.456C179.157 158.208 179.061 159.144 178.869 160.264C178.405 162.92 177.501 165.032 176.157 166.6C174.813 168.152 172.957 168.928 170.589 168.928C168.685 168.928 167.293 168.416 166.413 167.392C165.549 166.352 165.117 164.912 165.117 163.072C165.117 162.224 165.205 161.288 165.381 160.264ZM174.813 160.264C174.989 159.272 175.077 158.496 175.077 157.936C175.077 157.136 174.917 156.52 174.597 156.088C174.277 155.656 173.733 155.44 172.965 155.44C171.861 155.44 171.053 155.864 170.541 156.712C170.045 157.56 169.669 158.744 169.413 160.264C169.237 161.256 169.149 162.032 169.149 162.592C169.149 163.392 169.309 164.008 169.629 164.44C169.949 164.872 170.493 165.088 171.261 165.088C172.365 165.088 173.165 164.664 173.661 163.816C174.173 162.968 174.557 161.784 174.813 160.264Z" fill="#20656F"/>
<path d="M55.2418 113.454V114.786H51.8218V126H50.1838V114.786H46.7458V113.454H55.2418ZM61.5601 126.162C60.6361 126.162 59.7961 125.952 59.0401 125.532C58.2961 125.112 57.7081 124.518 57.2761 123.75C56.8561 122.97 56.6461 122.07 56.6461 121.05C56.6461 120.042 56.8621 119.154 57.2941 118.386C57.7381 117.606 58.3381 117.012 59.0941 116.604C59.8501 116.184 60.6961 115.974 61.6321 115.974C62.5681 115.974 63.4141 116.184 64.1701 116.604C64.9261 117.012 65.5201 117.6 65.9521 118.368C66.3961 119.136 66.6181 120.03 66.6181 121.05C66.6181 122.07 66.3901 122.97 65.9341 123.75C65.4901 124.518 64.8841 125.112 64.1161 125.532C63.3481 125.952 62.4961 126.162 61.5601 126.162ZM61.5601 124.722C62.1481 124.722 62.7001 124.584 63.2161 124.308C63.7321 124.032 64.1461 123.618 64.4581 123.066C64.7821 122.514 64.9441 121.842 64.9441 121.05C64.9441 120.258 64.7881 119.586 64.4761 119.034C64.1641 118.482 63.7561 118.074 63.2521 117.81C62.7481 117.534 62.2021 117.396 61.6141 117.396C61.0141 117.396 60.4621 117.534 59.9581 117.81C59.4661 118.074 59.0701 118.482 58.7701 119.034C58.4701 119.586 58.3201 120.258 58.3201 121.05C58.3201 121.854 58.4641 122.532 58.7521 123.084C59.0521 123.636 59.4481 124.05 59.9401 124.326C60.4321 124.59 60.9721 124.722 61.5601 124.722ZM70.7697 117.486V123.3C70.7697 123.78 70.8717 124.122 71.0757 124.326C71.2797 124.518 71.6337 124.614 72.1377 124.614H73.3437V126H71.8677C70.9557 126 70.2717 125.79 69.8157 125.37C69.3597 124.95 69.1317 124.26 69.1317 123.3V117.486H67.8537V116.136H69.1317V113.652H70.7697V116.136H73.3437V117.486H70.7697ZM74.7164 121.032C74.7164 120.024 74.9204 119.142 75.3284 118.386C75.7364 117.618 76.2944 117.024 77.0024 116.604C77.7224 116.184 78.5204 115.974 79.3964 115.974C80.2604 115.974 81.0104 116.16 81.6464 116.532C82.2824 116.904 82.7564 117.372 83.0684 117.936V116.136H84.7244V126H83.0684V124.164C82.7444 124.74 82.2584 125.22 81.6104 125.604C80.9744 125.976 80.2304 126.162 79.3784 126.162C78.5024 126.162 77.7104 125.946 77.0024 125.514C76.2944 125.082 75.7364 124.476 75.3284 123.696C74.9204 122.916 74.7164 122.028 74.7164 121.032ZM83.0684 121.05C83.0684 120.306 82.9184 119.658 82.6184 119.106C82.3184 118.554 81.9104 118.134 81.3944 117.846C80.8904 117.546 80.3324 117.396 79.7204 117.396C79.1084 117.396 78.5504 117.54 78.0464 117.828C77.5424 118.116 77.1404 118.536 76.8404 119.088C76.5404 119.64 76.3904 120.288 76.3904 121.032C76.3904 121.788 76.5404 122.448 76.8404 123.012C77.1404 123.564 77.5424 123.99 78.0464 124.29C78.5504 124.578 79.1084 124.722 79.7204 124.722C80.3324 124.722 80.8904 124.578 81.3944 124.29C81.9104 123.99 82.3184 123.564 82.6184 123.012C82.9184 122.448 83.0684 121.794 83.0684 121.05ZM89.1304 112.68V126H87.4924V112.68H89.1304ZM98.359 117.972C98.695 117.384 99.187 116.904 99.835 116.532C100.483 116.16 101.221 115.974 102.049 115.974C102.937 115.974 103.735 116.184 104.443 116.604C105.151 117.024 105.709 117.618 106.117 118.386C106.525 119.142 106.729 120.024 106.729 121.032C106.729 122.028 106.525 122.916 106.117 123.696C105.709 124.476 105.145 125.082 104.425 125.514C103.717 125.946 102.925 126.162 102.049 126.162C101.197 126.162 100.447 125.976 99.799 125.604C99.163 125.232 98.683 124.758 98.359 124.182V126H96.721V112.68H98.359V117.972ZM105.055 121.032C105.055 120.288 104.905 119.64 104.605 119.088C104.305 118.536 103.897 118.116 103.381 117.828C102.877 117.54 102.319 117.396 101.707 117.396C101.107 117.396 100.549 117.546 100.033 117.846C99.529 118.134 99.121 118.56 98.809 119.124C98.509 119.676 98.359 120.318 98.359 121.05C98.359 121.794 98.509 122.448 98.809 123.012C99.121 123.564 99.529 123.99 100.033 124.29C100.549 124.578 101.107 124.722 101.707 124.722C102.319 124.722 102.877 124.578 103.381 124.29C103.897 123.99 104.305 123.564 104.605 123.012C104.905 122.448 105.055 121.788 105.055 121.032ZM108.273 121.032C108.273 120.024 108.477 119.142 108.885 118.386C109.293 117.618 109.851 117.024 110.559 116.604C111.279 116.184 112.077 115.974 112.953 115.974C113.817 115.974 114.567 116.16 115.203 116.532C115.839 116.904 116.313 117.372 116.625 117.936V116.136H118.281V126H116.625V124.164C116.301 124.74 115.815 125.22 115.167 125.604C114.531 125.976 113.787 126.162 112.935 126.162C112.059 126.162 111.267 125.946 110.559 125.514C109.851 125.082 109.293 124.476 108.885 123.696C108.477 122.916 108.273 122.028 108.273 121.032ZM116.625 121.05C116.625 120.306 116.475 119.658 116.175 119.106C115.875 118.554 115.467 118.134 114.951 117.846C114.447 117.546 113.889 117.396 113.277 117.396C112.665 117.396 112.107 117.54 111.603 117.828C111.099 118.116 110.697 118.536 110.397 119.088C110.097 119.64 109.947 120.288 109.947 121.032C109.947 121.788 110.097 122.448 110.397 123.012C110.697 123.564 111.099 123.99 111.603 124.29C112.107 124.578 112.665 124.722 113.277 124.722C113.889 124.722 114.447 124.578 114.951 124.29C115.467 123.99 115.875 123.564 116.175 123.012C116.475 122.448 116.625 121.794 116.625 121.05ZM122.687 112.68V126H121.049V112.68H122.687ZM124.867 121.032C124.867 120.024 125.071 119.142 125.479 118.386C125.887 117.618 126.445 117.024 127.153 116.604C127.873 116.184 128.671 115.974 129.547 115.974C130.411 115.974 131.161 116.16 131.797 116.532C132.433 116.904 132.907 117.372 133.219 117.936V116.136H134.875V126H133.219V124.164C132.895 124.74 132.409 125.22 131.761 125.604C131.125 125.976 130.381 126.162 129.529 126.162C128.653 126.162 127.861 125.946 127.153 125.514C126.445 125.082 125.887 124.476 125.479 123.696C125.071 122.916 124.867 122.028 124.867 121.032ZM133.219 121.05C133.219 120.306 133.069 119.658 132.769 119.106C132.469 118.554 132.061 118.134 131.545 117.846C131.041 117.546 130.483 117.396 129.871 117.396C129.259 117.396 128.701 117.54 128.197 117.828C127.693 118.116 127.291 118.536 126.991 119.088C126.691 119.64 126.541 120.288 126.541 121.032C126.541 121.788 126.691 122.448 126.991 123.012C127.291 123.564 127.693 123.99 128.197 124.29C128.701 124.578 129.259 124.722 129.871 124.722C130.483 124.722 131.041 124.578 131.545 124.29C132.061 123.99 132.469 123.564 132.769 123.012C133.069 122.448 133.219 121.794 133.219 121.05ZM142.449 115.956C143.649 115.956 144.621 116.322 145.365 117.054C146.109 117.774 146.481 118.818 146.481 120.186V126H144.861V120.42C144.861 119.436 144.615 118.686 144.123 118.17C143.631 117.642 142.959 117.378 142.107 117.378C141.243 117.378 140.553 117.648 140.037 118.188C139.533 118.728 139.281 119.514 139.281 120.546V126H137.643V116.136H139.281V117.54C139.605 117.036 140.043 116.646 140.595 116.37C141.159 116.094 141.777 115.956 142.449 115.956ZM148.545 121.05C148.545 120.03 148.749 119.142 149.157 118.386C149.565 117.618 150.129 117.024 150.849 116.604C151.581 116.184 152.415 115.974 153.351 115.974C154.563 115.974 155.559 116.268 156.339 116.856C157.131 117.444 157.653 118.26 157.905 119.304H156.141C155.973 118.704 155.643 118.23 155.151 117.882C154.671 117.534 154.071 117.36 153.351 117.36C152.415 117.36 151.659 117.684 151.083 118.332C150.507 118.968 150.219 119.874 150.219 121.05C150.219 122.238 150.507 123.156 151.083 123.804C151.659 124.452 152.415 124.776 153.351 124.776C154.071 124.776 154.671 124.608 155.151 124.272C155.631 123.936 155.961 123.456 156.141 122.832H157.905C157.641 123.84 157.113 124.65 156.321 125.262C155.529 125.862 154.539 126.162 153.351 126.162C152.415 126.162 151.581 125.952 150.849 125.532C150.129 125.112 149.565 124.518 149.157 123.75C148.749 122.982 148.545 122.082 148.545 121.05ZM169.09 120.69C169.09 121.002 169.072 121.332 169.036 121.68H161.152C161.212 122.652 161.542 123.414 162.142 123.966C162.754 124.506 163.492 124.776 164.356 124.776C165.064 124.776 165.652 124.614 166.12 124.29C166.6 123.954 166.936 123.51 167.128 122.958H168.892C168.628 123.906 168.1 124.68 167.308 125.28C166.516 125.868 165.532 126.162 164.356 126.162C163.42 126.162 162.58 125.952 161.836 125.532C161.104 125.112 160.528 124.518 160.108 123.75C159.688 122.97 159.478 122.07 159.478 121.05C159.478 120.03 159.682 119.136 160.09 118.368C160.498 117.6 161.068 117.012 161.8 116.604C162.544 116.184 163.396 115.974 164.356 115.974C165.292 115.974 166.12 116.178 166.84 116.586C167.56 116.994 168.112 117.558 168.496 118.278C168.892 118.986 169.09 119.79 169.09 120.69ZM167.398 120.348C167.398 119.724 167.26 119.19 166.984 118.746C166.708 118.29 166.33 117.948 165.85 117.72C165.382 117.48 164.86 117.36 164.284 117.36C163.456 117.36 162.748 117.624 162.16 118.152C161.584 118.68 161.254 119.412 161.17 120.348H167.398Z" fill="#20656F"/>
<defs>
<linearGradient id="paint0_linear_2_58" x1="171" y1="0" x2="171" y2="205" gradientUnits="userSpaceOnUse">
<stop stop-color="#FFCDC2"/>
<stop offset="1" stop-color="#F88888"/>
</linearGradient>
</defs>
</svg>
