<svg width="37" height="37" viewBox="0 0 37 37" fill="none" xmlns="http://www.w3.org/2000/svg">
<path fill-rule="evenodd" clip-rule="evenodd" d="M18.5 36.4922C8.56317 36.4922 0.507812 28.4368 0.507812 18.5C0.507812 8.56317 8.56317 0.507812 18.5 0.507812C28.4368 0.507812 36.4922 8.56317 36.4922 18.5C36.4922 28.4368 28.4368 36.4922 18.5 36.4922ZM18.5 35.207C27.7271 35.207 35.207 27.7271 35.207 18.5C35.207 9.27295 27.7271 1.79297 18.5 1.79297C9.27295 1.79297 1.79297 9.27295 1.79297 18.5C1.79297 27.7271 9.27295 35.207 18.5 35.207Z" fill="#DAD873"/>
<path fill-rule="evenodd" clip-rule="evenodd" d="M4.57682 12.3483C5.34681 10.5068 6.45168 9.43649 6.75002 9.13374C7.04836 8.83118 7.47191 8.97879 7.75556 9.13374C8.03921 9.28888 15.1494 16.4107 15.4669 16.7683C15.7841 17.1259 16.1205 17.6595 15.2097 17.6595C14.2987 17.6595 5.3492 17.5813 4.57682 17.528C3.80426 17.4746 3.57623 17.024 3.57623 16.6392C3.57623 16.2544 3.80664 14.1899 4.57682 12.3483ZM13.1786 4.42566C15.0253 3.66797 16.3419 3.71772 16.7669 3.71478C17.1919 3.71185 17.3869 4.11557 17.478 4.42566C17.5688 4.73593 17.6349 14.8602 17.6065 15.3374C17.5778 15.8147 17.5857 16.344 16.9417 15.6998C16.2974 15.0557 10.0244 8.67218 9.51604 8.08836C9.00749 7.50434 9.16483 7.02443 9.4371 6.75234C9.70918 6.48026 11.3318 5.18354 13.1787 4.42566H13.1786ZM24.4681 4.57676C26.3095 5.34675 27.3799 6.45162 27.6826 6.74996C27.9852 7.0483 27.8376 7.47185 27.6826 7.7555C27.5275 8.03915 20.4057 15.1494 20.0481 15.4668C19.6904 15.7841 19.1569 16.1204 19.1569 15.2096C19.1569 14.2986 19.2351 5.34914 19.2884 4.57676C19.3418 3.80419 19.7923 3.57617 20.1771 3.57617C20.562 3.57617 22.6265 3.80658 24.4681 4.57676ZM32.3907 13.1785C33.1484 15.0253 33.0987 16.3418 33.1016 16.7668C33.1045 17.1919 32.7008 17.3868 32.3907 17.4779C32.0805 17.5688 21.9562 17.6349 21.479 17.6064C21.0017 17.5778 20.4724 17.5857 21.1166 16.9416C21.7606 16.2974 28.1442 10.0244 28.728 9.51598C29.312 9.00743 29.792 9.16477 30.064 9.43704C30.3361 9.70912 31.6329 11.3317 32.3907 13.1787V13.1785ZM32.2396 24.6516C31.4696 26.4931 30.3648 27.5634 30.0664 27.8662C29.7681 28.1687 29.3445 28.0211 29.0609 27.8662C28.7772 27.711 21.667 20.5893 21.3496 20.2316C21.0323 19.874 20.696 19.3405 21.6068 19.3405C22.5178 19.3405 31.4673 19.4187 32.2396 19.4719C33.0122 19.5253 33.2402 19.9759 33.2402 20.3607C33.2402 20.7455 33.0098 22.81 32.2396 24.6516ZM23.6379 32.5743C21.7911 33.332 20.4746 33.2822 20.0496 33.2851C19.6245 33.2881 19.4296 32.8843 19.3385 32.5743C19.2476 32.264 19.1815 22.1397 19.21 21.6625C19.2386 21.1852 19.2307 20.6559 19.8748 21.3001C20.519 21.9442 26.792 28.3277 27.3004 28.9116C27.809 29.4956 27.6516 29.9755 27.3794 30.2476C27.1073 30.5197 25.4847 31.8164 23.6377 32.5743H23.6379ZM12.3483 32.4232C10.5069 31.6532 9.43655 30.5483 9.1338 30.25C8.83124 29.9516 8.97885 29.5281 9.1338 29.2444C9.28894 28.9608 16.4107 21.8505 16.7684 21.5331C17.126 21.2159 17.6595 20.8795 17.6595 21.7903C17.6595 22.7013 17.5813 31.6508 17.5281 32.4232C17.4746 33.1957 17.0241 33.4237 16.6393 33.4237C16.2545 33.4237 14.19 33.1933 12.3483 32.4232ZM4.42572 23.8214C3.66803 21.9747 3.71778 20.6581 3.71485 20.2331C3.71191 19.8081 4.11563 19.6131 4.42572 19.522C4.73599 19.4311 14.8603 19.3651 15.3374 19.3935C15.8148 19.4222 16.3441 19.4143 15.6998 20.0583C15.0558 20.7025 8.67225 26.9756 8.08842 27.4839C7.50441 27.9925 7.02449 27.8352 6.75241 27.5629C6.48032 27.2908 5.1836 25.6682 4.42572 23.8212V23.8214Z" fill="#DAD873"/>
</svg>
